<?xml version="1.0" encoding="utf-8"?>
<!-- Generator: Adobe Illustrator 22.1.0, SVG Export Plug-In . SVG Version: 6.00 Build 0)  -->
<svg version="1.1" id="Calque_2" xmlns="http://www.w3.org/2000/svg" xmlns:xlink="http://www.w3.org/1999/xlink" x="0px" y="0px"
	 viewBox="0 0 512 512" style="enable-background:new 0 0 512 512;" xml:space="preserve">
<style type="text/css">
	.st0{fill:#1AB385;}
</style>
<g>
	<path class="st0" d="M501.3,256.1c0-32.5-40.7-63.3-103.1-82.4c14.4-63.6,8-114.2-20.2-130.4c-6.5-3.8-14.1-5.6-22.4-5.6V60
		c4.6,0,8.3,0.9,11.4,2.6c13.6,7.8,19.5,37.5,14.9,75.7c-1.1,9.4-2.9,19.3-5.1,29.4c-19.6-4.8-41-8.5-63.5-10.9
		c-13.5-18.5-27.5-35.3-41.6-50c32.6-30.3,63.2-46.9,84-46.9V37.6l0,0c-27.5,0-63.5,19.6-99.9,53.6C219.4,57.4,183.4,38,155.9,38
		v22.3c20.7,0,51.4,16.5,84,46.6c-14,14.7-28,31.4-41.3,49.9c-22.6,2.4-44,6.1-63.6,11c-2.3-10-4-19.7-5.2-29
		c-4.7-38.2,1.1-67.9,14.6-75.8c3-1.8,6.9-2.6,11.5-2.6V38.1l0,0c-8.4,0-16,1.8-22.6,5.6c-28.1,16.2-34.4,66.7-19.9,130.1
		C51.2,193,10.7,223.7,10.7,256.1c0,32.5,40.7,63.3,103.1,82.4c-14.4,63.6-8,114.2,20.2,130.4c6.5,3.8,14.1,5.6,22.5,5.6
		c27.5,0,63.5-19.6,99.9-53.6c36.4,33.8,72.4,53.2,99.9,53.2c8.4,0,16-1.8,22.6-5.6c28.1-16.2,34.4-66.7,19.9-130.1
		C460.8,319.3,501.3,288.5,501.3,256.1z M371.1,189.4c-3.7,12.9-8.3,26.2-13.5,39.5c-4.1-8-8.4-16-13.1-24
		c-4.6-8-9.5-15.8-14.4-23.4C344.3,183.6,358,186.2,371.1,189.4z M325.3,295.9c-7.8,13.5-15.8,26.3-24.1,38.2c-14.9,1.3-30,2-45.2,2
		c-15.1,0-30.2-0.7-45-1.9c-8.3-11.9-16.4-24.6-24.2-38c-7.6-13.1-14.5-26.4-20.8-39.8c6.2-13.4,13.2-26.8,20.7-39.9
		c7.8-13.5,15.8-26.3,24.1-38.2c14.9-1.3,30-2,45.2-2c15.1,0,30.2,0.7,45,1.9c8.3,11.9,16.4,24.6,24.2,38
		c7.6,13.1,14.5,26.4,20.8,39.8C339.7,269.4,332.8,282.8,325.3,295.9z M357.6,282.9c5.4,13.4,10,26.8,13.8,39.8
		c-13.1,3.2-26.9,5.9-41.2,8c4.9-7.7,9.8-15.6,14.4-23.7C349.2,299,353.5,290.9,357.6,282.9z M256.2,389.6
		c-9.3-9.6-18.6-20.3-27.8-32c9,0.4,18.2,0.7,27.5,0.7c9.4,0,18.7-0.2,27.8-0.7C274.7,369.3,265.4,380,256.2,389.6z M181.8,330.7
		c-14.2-2.1-27.9-4.7-41-7.9c3.7-12.9,8.3-26.2,13.5-39.5c4.1,8,8.4,16,13.1,24S176.9,323.1,181.8,330.7z M255.7,122.6
		c9.3,9.6,18.6,20.3,27.8,32c-9-0.4-18.2-0.7-27.5-0.7c-9.4,0-18.7,0.2-27.8,0.7C237.2,142.9,246.5,132.2,255.7,122.6z M181.7,181.5
		c-4.9,7.7-9.8,15.6-14.4,23.7c-4.6,8-8.9,16-13,24c-5.4-13.4-10-26.8-13.8-39.8C153.6,186.2,167.4,183.6,181.7,181.5z M91.2,306.7
		c-35.4-15.1-58.3-34.9-58.3-50.6s22.9-35.6,58.3-50.6c8.6-3.7,18-7,27.7-10.1c5.7,19.6,13.2,40,22.5,60.9
		c-9.2,20.8-16.6,41.1-22.2,60.6C109.3,313.8,99.9,310.4,91.2,306.7z M145,449.6c-13.6-7.8-19.5-37.5-14.9-75.7
		c1.1-9.4,2.9-19.3,5.1-29.4c19.6,4.8,41,8.5,63.5,10.9c13.5,18.5,27.5,35.3,41.6,50c-32.6,30.3-63.2,46.9-84,46.9
		C151.8,452.2,148,451.3,145,449.6z M382.2,373.4c4.7,38.2-1.1,67.9-14.6,75.8c-3,1.8-6.9,2.6-11.5,2.6c-20.7,0-51.4-16.5-84-46.6
		c14-14.7,28-31.4,41.3-49.9c22.6-2.4,44-6.1,63.6-11C379.3,354.4,381.1,364.1,382.2,373.4z M420.7,306.7c-8.6,3.7-18,7-27.7,10.1
		c-5.7-19.6-13.2-40-22.5-60.9c9.2-20.8,16.6-41.1,22.2-60.6c9.9,3.1,19.3,6.5,28.1,10.2c35.4,15.1,58.3,34.9,58.3,50.6
		C479,271.8,456.1,291.7,420.7,306.7z"/>
	<circle class="st0" cx="255.9" cy="256.1" r="45.7"/>
</g>
</svg>
